<svg xmlns="http://www.w3.org/2000/svg" width="1280" height="562" style="cursor:move;touch-action:none;-webkit-tap-highlight-color:transparent"><g transform="translate(175.01818582546036,82.4971383504921) scale(0.6964057403345176)"><path d="M252,-39, 578,71" class="link" style="stroke-width:.8;stroke-opacity:1;stroke:#505050"/><path d="M252,-39, 578,126" class="link" style="stroke-width:.8;stroke-opacity:1;stroke:#505050"/><path d="M252,-39, 578,181" class="link" style="stroke-width:.8;stroke-opacity:1;stroke:#505050"/><path d="M252,-39, 578,236" class="link" style="stroke-width:.8;stroke-opacity:1;stroke:#505050"/><path d="M252,-39, 578,291" class="link" style="stroke-width:.8;stroke-opacity:1;stroke:#505050"/><path d="M252,-39, 578,346" class="link" style="stroke-width:.8;stroke-opacity:1;stroke:#505050"/><path d="M252,16, 578,71" class="link" style="stroke-width:.8;stroke-opacity:1;stroke:#505050"/><path d="M252,16, 578,126" class="link" style="stroke-width:.8;stroke-opacity:1;stroke:#505050"/><path d="M252,16, 578,181" class="link" style="stroke-width:.8;stroke-opacity:1;stroke:#505050"/><path d="M252,16, 578,236" class="link" style="stroke-width:.8;stroke-opacity:1;stroke:#505050"/><path d="M252,16, 578,291" class="link" style="stroke-width:.8;stroke-opacity:1;stroke:#505050"/><path d="M252,16, 578,346" class="link" style="stroke-width:.8;stroke-opacity:1;stroke:#505050"/><path d="M252,71, 578,71" class="link" style="stroke-width:.8;stroke-opacity:1;stroke:#505050"/><path d="M252,71, 578,126" class="link" style="stroke-width:.8;stroke-opacity:1;stroke:#505050"/><path d="M252,71, 578,181" class="link" style="stroke-width:.8;stroke-opacity:1;stroke:#505050"/><path d="M252,71, 578,236" class="link" style="stroke-width:.8;stroke-opacity:1;stroke:#505050"/><path d="M252,71, 578,291" class="link" style="stroke-width:.8;stroke-opacity:1;stroke:#505050"/><path d="M252,71, 578,346" class="link" style="stroke-width:.8;stroke-opacity:1;stroke:#505050"/><path d="M252,126, 578,71" class="link" style="stroke-width:.8;stroke-opacity:1;stroke:#505050"/><path d="M252,126, 578,126" class="link" style="stroke-width:.8;stroke-opacity:1;stroke:#505050"/><path d="M252,126, 578,181" class="link" style="stroke-width:.8;stroke-opacity:1;stroke:#505050"/><path d="M252,126, 578,236" class="link" style="stroke-width:.8;stroke-opacity:1;stroke:#505050"/><path d="M252,126, 578,291" class="link" style="stroke-width:.8;stroke-opacity:1;stroke:#505050"/><path d="M252,126, 578,346" class="link" style="stroke-width:.8;stroke-opacity:1;stroke:#505050"/><path d="M252,181, 578,71" class="link" style="stroke-width:.8;stroke-opacity:1;stroke:#505050"/><path d="M252,181, 578,126" class="link" style="stroke-width:.8;stroke-opacity:1;stroke:#505050"/><path d="M252,181, 578,181" class="link" style="stroke-width:.8;stroke-opacity:1;stroke:#505050"/><path d="M252,181, 578,236" class="link" style="stroke-width:.8;stroke-opacity:1;stroke:#505050"/><path d="M252,181, 578,291" class="link" style="stroke-width:.8;stroke-opacity:1;stroke:#505050"/><path d="M252,181, 578,346" class="link" style="stroke-width:.8;stroke-opacity:1;stroke:#505050"/><path d="M252,236, 578,71" class="link" style="stroke-width:.8;stroke-opacity:1;stroke:#505050"/><path d="M252,236, 578,126" class="link" style="stroke-width:.8;stroke-opacity:1;stroke:#505050"/><path d="M252,236, 578,181" class="link" style="stroke-width:.8;stroke-opacity:1;stroke:#505050"/><path d="M252,236, 578,236" class="link" style="stroke-width:.8;stroke-opacity:1;stroke:#505050"/><path d="M252,236, 578,291" class="link" style="stroke-width:.8;stroke-opacity:1;stroke:#505050"/><path d="M252,236, 578,346" class="link" style="stroke-width:.8;stroke-opacity:1;stroke:#505050"/><path d="M252,291, 578,71" class="link" style="stroke-width:.8;stroke-opacity:1;stroke:#505050"/><path d="M252,291, 578,126" class="link" style="stroke-width:.8;stroke-opacity:1;stroke:#505050"/><path d="M252,291, 578,181" class="link" style="stroke-width:.8;stroke-opacity:1;stroke:#505050"/><path d="M252,291, 578,236" class="link" style="stroke-width:.8;stroke-opacity:1;stroke:#505050"/><path d="M252,291, 578,291" class="link" style="stroke-width:.8;stroke-opacity:1;stroke:#505050"/><path d="M252,291, 578,346" class="link" style="stroke-width:.8;stroke-opacity:1;stroke:#505050"/><path d="M252,346, 578,71" class="link" style="stroke-width:.8;stroke-opacity:1;stroke:#505050"/><path d="M252,346, 578,126" class="link" style="stroke-width:.8;stroke-opacity:1;stroke:#505050"/><path d="M252,346, 578,181" class="link" style="stroke-width:.8;stroke-opacity:1;stroke:#505050"/><path d="M252,346, 578,236" class="link" style="stroke-width:.8;stroke-opacity:1;stroke:#505050"/><path d="M252,346, 578,291" class="link" style="stroke-width:.8;stroke-opacity:1;stroke:#505050"/><path d="M252,346, 578,346" class="link" style="stroke-width:.8;stroke-opacity:1;stroke:#505050"/><path d="M252,401, 578,71" class="link" style="stroke-width:.8;stroke-opacity:1;stroke:#505050"/><path d="M252,401, 578,126" class="link" style="stroke-width:.8;stroke-opacity:1;stroke:#505050"/><path d="M252,401, 578,181" class="link" style="stroke-width:.8;stroke-opacity:1;stroke:#505050"/><path d="M252,401, 578,236" class="link" style="stroke-width:.8;stroke-opacity:1;stroke:#505050"/><path d="M252,401, 578,291" class="link" style="stroke-width:.8;stroke-opacity:1;stroke:#505050"/><path d="M252,401, 578,346" class="link" style="stroke-width:.8;stroke-opacity:1;stroke:#505050"/><path d="M252,456, 578,71" class="link" style="stroke-width:.8;stroke-opacity:1;stroke:#505050"/><path d="M252,456, 578,126" class="link" style="stroke-width:.8;stroke-opacity:1;stroke:#505050"/><path d="M252,456, 578,181" class="link" style="stroke-width:.8;stroke-opacity:1;stroke:#505050"/><path d="M252,456, 578,236" class="link" style="stroke-width:.8;stroke-opacity:1;stroke:#505050"/><path d="M252,456, 578,291" class="link" style="stroke-width:.8;stroke-opacity:1;stroke:#505050"/><path d="M252,456, 578,346" class="link" style="stroke-width:.8;stroke-opacity:1;stroke:#505050"/><path d="M578,71, 904,126" class="link" style="stroke-width:.8;stroke-opacity:1;stroke:#505050"/><path d="M578,71, 904,181" class="link" style="stroke-width:.8;stroke-opacity:1;stroke:#505050"/><path d="M578,71, 904,236" class="link" style="stroke-width:.8;stroke-opacity:1;stroke:#505050"/><path d="M578,71, 904,291" class="link" style="stroke-width:.8;stroke-opacity:1;stroke:#505050"/><path d="M578,126, 904,126" class="link" style="stroke-width:.8;stroke-opacity:1;stroke:#505050"/><path d="M578,126, 904,181" class="link" style="stroke-width:.8;stroke-opacity:1;stroke:#505050"/><path d="M578,126, 904,236" class="link" style="stroke-width:.8;stroke-opacity:1;stroke:#505050"/><path d="M578,126, 904,291" class="link" style="stroke-width:.8;stroke-opacity:1;stroke:#505050"/><path d="M578,181, 904,126" class="link" style="stroke-width:.8;stroke-opacity:1;stroke:#505050"/><path d="M578,181, 904,181" class="link" style="stroke-width:.8;stroke-opacity:1;stroke:#505050"/><path d="M578,181, 904,236" class="link" style="stroke-width:.8;stroke-opacity:1;stroke:#505050"/><path d="M578,181, 904,291" class="link" style="stroke-width:.8;stroke-opacity:1;stroke:#505050"/><path d="M578,236, 904,126" class="link" style="stroke-width:.8;stroke-opacity:1;stroke:#505050"/><path d="M578,236, 904,181" class="link" style="stroke-width:.8;stroke-opacity:1;stroke:#505050"/><path d="M578,236, 904,236" class="link" style="stroke-width:.8;stroke-opacity:1;stroke:#505050"/><path d="M578,236, 904,291" class="link" style="stroke-width:.8;stroke-opacity:1;stroke:#505050"/><path d="M578,291, 904,126" class="link" style="stroke-width:.8;stroke-opacity:1;stroke:#505050"/><path d="M578,291, 904,181" class="link" style="stroke-width:.8;stroke-opacity:1;stroke:#505050"/><path d="M578,291, 904,236" class="link" style="stroke-width:.8;stroke-opacity:1;stroke:#505050"/><path d="M578,291, 904,291" class="link" style="stroke-width:.8;stroke-opacity:1;stroke:#505050"/><path d="M578,346, 904,126" class="link" style="stroke-width:.8;stroke-opacity:1;stroke:#505050"/><path d="M578,346, 904,181" class="link" style="stroke-width:.8;stroke-opacity:1;stroke:#505050"/><path d="M578,346, 904,236" class="link" style="stroke-width:.8;stroke-opacity:1;stroke:#505050"/><path d="M578,346, 904,291" class="link" style="stroke-width:.8;stroke-opacity:1;stroke:#505050"/><path d="M904,126, 1230,236" class="link" style="stroke-width:.8;stroke-opacity:1;stroke:#505050"/><path d="M904,181, 1230,236" class="link" style="stroke-width:.8;stroke-opacity:1;stroke:#505050"/><path d="M904,236, 1230,236" class="link" style="stroke-width:.8;stroke-opacity:1;stroke:#505050"/><path d="M904,291, 1230,236" class="link" style="stroke-width:.8;stroke-opacity:1;stroke:#505050"/><path d="M904,126, 1230,291" class="link" style="stroke-width:.8;stroke-opacity:1;stroke:#505050"/><path d="M904,181, 1230,291" class="link" style="stroke-width:.8;stroke-opacity:1;stroke:#505050"/><path d="M904,236, 1230,291" class="link" style="stroke-width:.8;stroke-opacity:1;stroke:#505050"/><path d="M904,291, 1230,291" class="link" style="stroke-width:.8;stroke-opacity:1;stroke:#505050"/><path d="M252,511, 578,71" class="link" style="stroke-width:.8;stroke-opacity:1;stroke:#505050"/><path d="M252,511, 578,126" class="link" style="stroke-width:.8;stroke-opacity:1;stroke:#505050"/><path d="M252,511, 578,181" class="link" style="stroke-width:.8;stroke-opacity:1;stroke:#505050"/><path d="M252,511, 578,236" class="link" style="stroke-width:.8;stroke-opacity:1;stroke:#505050"/><path d="M252,511, 578,291" class="link" style="stroke-width:.8;stroke-opacity:1;stroke:#505050"/><path d="M252,511, 578,346" class="link" style="stroke-width:.8;stroke-opacity:1;stroke:#505050"/><path d="M252,566, 578,71" class="link" style="stroke-width:.8;stroke-opacity:1;stroke:#505050"/><path d="M252,566, 578,126" class="link" style="stroke-width:.8;stroke-opacity:1;stroke:#505050"/><path d="M252,566, 578,181" class="link" style="stroke-width:.8;stroke-opacity:1;stroke:#505050"/><path d="M252,566, 578,236" class="link" style="stroke-width:.8;stroke-opacity:1;stroke:#505050"/><path d="M252,566, 578,291" class="link" style="stroke-width:.8;stroke-opacity:1;stroke:#505050"/><path d="M252,566, 578,346" class="link" style="stroke-width:.8;stroke-opacity:1;stroke:#505050"/><path d="M252,-39, 578,401" class="link" style="stroke-width:.8;stroke-opacity:1;stroke:#505050"/><path d="M252,16, 578,401" class="link" style="stroke-width:.8;stroke-opacity:1;stroke:#505050"/><path d="M252,71, 578,401" class="link" style="stroke-width:.8;stroke-opacity:1;stroke:#505050"/><path d="M252,126, 578,401" class="link" style="stroke-width:.8;stroke-opacity:1;stroke:#505050"/><path d="M252,181, 578,401" class="link" style="stroke-width:.8;stroke-opacity:1;stroke:#505050"/><path d="M252,236, 578,401" class="link" style="stroke-width:.8;stroke-opacity:1;stroke:#505050"/><path d="M252,291, 578,401" class="link" style="stroke-width:.8;stroke-opacity:1;stroke:#505050"/><path d="M252,346, 578,401" class="link" style="stroke-width:.8;stroke-opacity:1;stroke:#505050"/><path d="M252,401, 578,401" class="link" style="stroke-width:.8;stroke-opacity:1;stroke:#505050"/><path d="M252,456, 578,401" class="link" style="stroke-width:.8;stroke-opacity:1;stroke:#505050"/><path d="M252,511, 578,401" class="link" style="stroke-width:.8;stroke-opacity:1;stroke:#505050"/><path d="M252,566, 578,401" class="link" style="stroke-width:.8;stroke-opacity:1;stroke:#505050"/><path d="M578,401, 904,126" class="link" style="stroke-width:.8;stroke-opacity:1;stroke:#505050"/><path d="M578,401, 904,181" class="link" style="stroke-width:.8;stroke-opacity:1;stroke:#505050"/><path d="M578,401, 904,236" class="link" style="stroke-width:.8;stroke-opacity:1;stroke:#505050"/><path d="M578,401, 904,291" class="link" style="stroke-width:.8;stroke-opacity:1;stroke:#505050"/><path d="M252,-39, 578,456" class="link" style="stroke-width:.8;stroke-opacity:1;stroke:#505050"/><path d="M252,16, 578,456" class="link" style="stroke-width:.8;stroke-opacity:1;stroke:#505050"/><path d="M252,71, 578,456" class="link" style="stroke-width:.8;stroke-opacity:1;stroke:#505050"/><path d="M252,126, 578,456" class="link" style="stroke-width:.8;stroke-opacity:1;stroke:#505050"/><path d="M252,181, 578,456" class="link" style="stroke-width:.8;stroke-opacity:1;stroke:#505050"/><path d="M252,236, 578,456" class="link" style="stroke-width:.8;stroke-opacity:1;stroke:#505050"/><path d="M252,291, 578,456" class="link" style="stroke-width:.8;stroke-opacity:1;stroke:#505050"/><path d="M252,346, 578,456" class="link" style="stroke-width:.8;stroke-opacity:1;stroke:#505050"/><path d="M252,401, 578,456" class="link" style="stroke-width:.8;stroke-opacity:1;stroke:#505050"/><path d="M252,456, 578,456" class="link" style="stroke-width:.8;stroke-opacity:1;stroke:#505050"/><path d="M252,511, 578,456" class="link" style="stroke-width:.8;stroke-opacity:1;stroke:#505050"/><path d="M252,566, 578,456" class="link" style="stroke-width:.8;stroke-opacity:1;stroke:#505050"/><path d="M578,456, 904,126" class="link" style="stroke-width:.8;stroke-opacity:1;stroke:#505050"/><path d="M578,456, 904,181" class="link" style="stroke-width:.8;stroke-opacity:1;stroke:#505050"/><path d="M578,456, 904,236" class="link" style="stroke-width:.8;stroke-opacity:1;stroke:#505050"/><path d="M578,456, 904,291" class="link" style="stroke-width:.8;stroke-opacity:1;stroke:#505050"/><path d="M578,71, 904,346" class="link" style="stroke-width:.8;stroke-opacity:1;stroke:#505050"/><path d="M578,126, 904,346" class="link" style="stroke-width:.8;stroke-opacity:1;stroke:#505050"/><path d="M578,181, 904,346" class="link" style="stroke-width:.8;stroke-opacity:1;stroke:#505050"/><path d="M578,236, 904,346" class="link" style="stroke-width:.8;stroke-opacity:1;stroke:#505050"/><path d="M578,291, 904,346" class="link" style="stroke-width:.8;stroke-opacity:1;stroke:#505050"/><path d="M578,346, 904,346" class="link" style="stroke-width:.8;stroke-opacity:1;stroke:#505050"/><path d="M578,401, 904,346" class="link" style="stroke-width:.8;stroke-opacity:1;stroke:#505050"/><path d="M578,456, 904,346" class="link" style="stroke-width:.8;stroke-opacity:1;stroke:#505050"/><path d="M904,346, 1230,236" class="link" style="stroke-width:.8;stroke-opacity:1;stroke:#505050"/><path d="M904,346, 1230,291" class="link" style="stroke-width:.8;stroke-opacity:1;stroke:#505050"/><path d="M578,71, 904,401" class="link" style="stroke-width:.8;stroke-opacity:1;stroke:#505050"/><path d="M578,126, 904,401" class="link" style="stroke-width:.8;stroke-opacity:1;stroke:#505050"/><path d="M578,181, 904,401" class="link" style="stroke-width:.8;stroke-opacity:1;stroke:#505050"/><path d="M578,236, 904,401" class="link" style="stroke-width:.8;stroke-opacity:1;stroke:#505050"/><path d="M578,291, 904,401" class="link" style="stroke-width:.8;stroke-opacity:1;stroke:#505050"/><path d="M578,346, 904,401" class="link" style="stroke-width:.8;stroke-opacity:1;stroke:#505050"/><path d="M578,401, 904,401" class="link" style="stroke-width:.8;stroke-opacity:1;stroke:#505050"/><path d="M578,456, 904,401" class="link" style="stroke-width:.8;stroke-opacity:1;stroke:#505050"/><path d="M904,401, 1230,236" class="link" style="stroke-width:.8;stroke-opacity:1;stroke:#505050"/><path d="M904,401, 1230,291" class="link" style="stroke-width:.8;stroke-opacity:1;stroke:#505050"/><circle id="0_0" cx="252" cy="-39" r="17.5" class="node" style="fill:#fff;stroke:#333"/><circle id="0_1" cx="252" cy="16" r="17.5" class="node" style="fill:#fff;stroke:#333"/><circle id="0_2" cx="252" cy="71" r="17.5" class="node" style="fill:#fff;stroke:#333"/><circle id="0_3" cx="252" cy="126" r="17.5" class="node" style="fill:#fff;stroke:#333"/><circle id="0_4" cx="252" cy="181" r="17.5" class="node" style="fill:#fff;stroke:#333"/><circle id="0_5" cx="252" cy="236" r="17.5" class="node" style="fill:#fff;stroke:#333"/><circle id="0_6" cx="252" cy="291" r="17.5" class="node" style="fill:#fff;stroke:#333"/><circle id="0_7" cx="252" cy="346" r="17.5" class="node" style="fill:#fff;stroke:#333"/><circle id="0_8" cx="252" cy="401" r="17.5" class="node" style="fill:#fff;stroke:#333"/><circle id="0_9" cx="252" cy="456" r="17.5" class="node" style="fill:#fff;stroke:#333"/><circle id="0_10" cx="252" cy="511" r="17.5" class="node" style="fill:#fff;stroke:#333"/><circle id="0_11" cx="252" cy="566" r="17.5" class="node" style="fill:#fff;stroke:#333"/><circle id="1_0" cx="578" cy="71" r="17.5" class="node" style="fill:#fff;stroke:#333"/><circle id="1_1" cx="578" cy="126" r="17.5" class="node" style="fill:#fff;stroke:#333"/><circle id="1_2" cx="578" cy="181" r="17.5" class="node" style="fill:#fff;stroke:#333"/><circle id="1_3" cx="578" cy="236" r="17.5" class="node" style="fill:#fff;stroke:#333"/><circle id="1_4" cx="578" cy="291" r="17.5" class="node" style="fill:#fff;stroke:#333"/><circle id="1_5" cx="578" cy="346" r="17.5" class="node" style="fill:#fff;stroke:#333"/><circle id="1_6" cx="578" cy="401" r="17.5" class="node" style="fill:#fff;stroke:#333"/><circle id="1_7" cx="578" cy="456" r="17.5" class="node" style="fill:#fff;stroke:#333"/><circle id="2_0" cx="904" cy="126" r="17.5" class="node" style="fill:#fff;stroke:#333"/><circle id="2_1" cx="904" cy="181" r="17.5" class="node" style="fill:#fff;stroke:#333"/><circle id="2_2" cx="904" cy="236" r="17.5" class="node" style="fill:#fff;stroke:#333"/><circle id="2_3" cx="904" cy="291" r="17.5" class="node" style="fill:#fff;stroke:#333"/><circle id="2_4" cx="904" cy="346" r="17.5" class="node" style="fill:#fff;stroke:#333"/><circle id="2_5" cx="904" cy="401" r="17.5" class="node" style="fill:#fff;stroke:#333"/><circle id="3_0" cx="1230" cy="236" r="17.5" class="node" style="fill:#fff;stroke:#333"/><text x="217" y="621" class="text" dy=".35em" style="font-size:12px">Input Layer ∈ ℝ¹²</text><text x="543" y="621" class="text" dy=".35em" style="font-size:12px">Hidden Layer ∈ ℝ⁸</text><text x="869" y="621" class="text" dy=".35em" style="font-size:12px">Hidden Layer ∈ ℝ⁶</text><text x="1195" y="621" class="text" dy=".35em" style="font-size:12px">Output Layer ∈ ℝ²</text><circle id="3_1" cx="1230" cy="291" r="17.5" class="node" style="fill:#fff;stroke:#333"/></g><defs><marker id="arrow" markerHeight="7" markerWidth="7" orient="auto" refX="61" viewBox="0 -5 10 10"><path d="M0,-5L10,0L0,5" style="stroke:#505050;fill:#505050"/></marker></defs></svg>